<?xml version="1.0" standalone="no"?><!DOCTYPE svg PUBLIC "-//W3C//DTD SVG 1.1//EN" "http://www.w3.org/Graphics/SVG/1.1/DTD/svg11.dtd"><svg t="1545124096714" class="icon" style="" viewBox="0 0 1024 1024" version="1.1" xmlns="http://www.w3.org/2000/svg" p-id="2635" data-spm-anchor-id="a313x.7781069.0.i1" xmlns:xlink="http://www.w3.org/1999/xlink" width="200" height="200"><defs><style type="text/css"></style></defs><path d="M754.056 837.586H275.944c-77.165 0-139.936-62.77-139.936-139.936v-81.629c0-12.891 10.443-23.321 23.323-23.321s23.322 10.432 23.322 23.321v81.629c0 51.449 41.851 93.291 93.291 93.291h478.111c51.439 0 93.29-41.842 93.29-93.291v-81.629c0-12.891 10.443-23.321 23.323-23.321 12.879 0 23.322 10.432 23.322 23.321v81.629c0.001 77.166-62.769 139.936-139.934 139.936z" fill="#8a8a8a" p-id="2636" data-spm-anchor-id="a313x.7781069.0.i2" class=""></path><path d="M610.477 502.165V239.354c0-25.759-20.886-46.645-46.645-46.645h-36.146c-25.781 0-46.645 20.886-46.645 46.645v262.811H334.023l175.58 215.302L734.15 502.165H610.477z" fill="#bfbfbf" p-id="2637" data-spm-anchor-id="a313x.7781069.0.i0" class="selected"></path><path d="M514.271 724.479c-5.706 0-11.411-2.07-15.887-6.239l-231.54-215.323a23.35 23.35 0 0 1-5.819-25.623 23.34 23.34 0 0 1 21.706-14.782h123.673v-70.969c0-12.891 10.441-23.323 23.321-23.323 12.881 0 23.323 10.432 23.323 23.323v94.292c0 12.892-10.442 23.323-23.323 23.323h-87.664L514.27 669.319l172.209-160.16h-87.664c-12.882 0-23.324-10.432-23.324-23.323V223.047c0-12.869-10.466-23.323-23.321-23.323h-75.798c-11.115 0-23.323 15.852-23.323 30.292 0 12.892-10.442 23.323-23.323 23.323-12.88 0-23.321-10.431-23.321-23.323 0-36.396 28.73-76.937 69.968-76.937h75.798c38.582 0 69.967 31.385 69.967 69.968v239.465h123.673c9.59 0 18.199 5.877 21.706 14.782a23.352 23.352 0 0 1-5.817 25.623L530.159 718.24c-4.476 4.168-10.182 6.239-15.888 6.239z" fill="#8a8a8a" p-id="2638" data-spm-anchor-id="a313x.7781069.0.i3" class=""></path><path d="M429.727 353.644c-12.88 0-23.321-10.431-23.321-23.323v-39.63c0-12.891 10.441-23.323 23.321-23.323 12.881 0 23.323 10.432 23.323 23.323v39.63c0 12.891-10.443 23.323-23.323 23.323z" fill="#8a8a8a" p-id="2639" data-spm-anchor-id="a313x.7781069.0.i4" class=""></path></svg>