<?xml version="1.0" standalone="no"?><!DOCTYPE svg PUBLIC "-//W3C//DTD SVG 1.1//EN" "http://www.w3.org/Graphics/SVG/1.1/DTD/svg11.dtd"><svg t="1543283576002" class="icon" style="" viewBox="0 0 1244 1024" version="1.1" xmlns="http://www.w3.org/2000/svg" p-id="2938" xmlns:xlink="http://www.w3.org/1999/xlink" width="242.96875" height="200"><defs><style type="text/css"></style></defs><path d="M999.154362 1024H178.315748A178.515579 178.515579 0 0 1 0 845.950693V257.848436a178.515579 178.515579 0 0 1 178.315748-178.315749h602.623301a39.966174 39.966174 0 0 1 0 79.932349H178.315748A98.45001 98.45001 0 0 0 79.932349 257.848436V845.950693a98.45001 98.45001 0 0 0 98.383399 98.383399H999.154362A98.45001 98.45001 0 0 0 1097.737592 845.950693V472.00052a39.966174 39.966174 0 0 1 79.932349 0V845.950693a178.515579 178.515579 0 0 1-178.515579 178.049307z" fill="#2c2c2c" p-id="2939" data-spm-anchor-id="a313x.7781069.0.i6" class=""></path><path d="M588.83497 467.3378H356.431666a39.966174 39.966174 0 0 1 0-79.932349H588.83497a39.966174 39.966174 0 0 1 0 79.932349zM833.028296 451.35133a39.966174 39.966174 0 0 1-28.242763-68.208937l371.418981-371.418982a39.966174 39.966174 0 0 1 56.485527 56.485527L861.27106 439.627919a39.966174 39.966174 0 0 1-28.242764 11.723411zM524.089768 682.888701H356.431666a39.966174 39.966174 0 0 1 0-79.932349h167.658102a39.966174 39.966174 0 0 1 0 79.932349z" fill="#2aa515" p-id="2940" data-spm-anchor-id="a313x.7781069.0.i0" class="selected"></path></svg>