<?xml version="1.0" standalone="no"?><!DOCTYPE svg PUBLIC "-//W3C//DTD SVG 1.1//EN" "http://www.w3.org/Graphics/SVG/1.1/DTD/svg11.dtd"><svg t="1543283818379" class="icon" style="" viewBox="0 0 1024 1024" version="1.1" xmlns="http://www.w3.org/2000/svg" p-id="4638" xmlns:xlink="http://www.w3.org/1999/xlink" width="200" height="200"><defs><style type="text/css"></style></defs><path d="M640.0512 557.568m-256.3072 0a256.3072 256.3072 0 1 0 512.6144 0 256.3072 256.3072 0 1 0-512.6144 0Z" fill="#c8db8c" p-id="4639" data-spm-anchor-id="a313x.7781069.0.i21" class="selected"></path><path d="M512 908.0832a53.1968 53.1968 0 0 1-37.8368-15.6672l-347.8016-347.8016A261.7856 261.7856 0 0 1 51.2 366.08a241.3568 241.3568 0 0 1 69.5808-177.664 247.808 247.808 0 0 1 350.3616 0l40.96 40.96 40.96-40.96a247.808 247.808 0 0 1 350.3616 0A241.2544 241.2544 0 0 1 972.8 366.08a261.7344 261.7344 0 0 1-75.1104 178.5344l-347.7504 347.7504a53.1968 53.1968 0 0 1-37.9392 15.7184zM295.8848 168.96a194.56 194.56 0 0 0-194.1504 207.2576 202.1888 202.1888 0 0 0 60.8768 129.3824L512 855.04l349.3888-349.3888a202.1888 202.1888 0 0 0 60.8768-129.3824 194.56 194.56 0 0 0-331.7248-150.0672L552.96 263.8336l34.4576 34.4576a28.8768 28.8768 0 0 1-40.96 40.96L437.8112 230.4a202.24 202.24 0 0 0-129.3824-60.928c-4.096-0.2048-8.3456-0.512-12.544-0.512z" fill="#222222" p-id="4640"></path></svg>