<?xml version="1.0" standalone="no"?><!DOCTYPE svg PUBLIC "-//W3C//DTD SVG 1.1//EN" "http://www.w3.org/Graphics/SVG/1.1/DTD/svg11.dtd"><svg t="1546143935775" class="icon" style="" viewBox="0 0 1024 1024" version="1.1" xmlns="http://www.w3.org/2000/svg" p-id="2533" xmlns:xlink="http://www.w3.org/1999/xlink" width="200" height="200"><defs><style type="text/css"></style></defs><path d="M234.335 122.683h553.846l52.294 444.19 65.646-7.665-58.475-497.349H174.87l-58.475 497.349 65.645 7.665 52.294-444.19z m0 0" fill="#515151" p-id="2534" data-spm-anchor-id="a313x.7781069.0.i4" class="selected"></path><path d="M288.484 173.246h445.549v55.756h-445.55zM288.484 284.634h445.549v55.755h-445.55zM288.484 396.021h445.549v55.632h-445.55zM288.484 507.408h445.549v55.632h-445.55zM928.992 618.796H93.525c-15.33 0-23.984 11.868-19.039 26.456l93.833 281.25c4.821 14.588 21.263 26.456 36.717 26.456h612.692c15.33 0 31.772-11.868 36.717-26.456l93.709-281.25c4.574-14.588-3.833-26.456-19.162-26.456zM622.646 730.183H399.87v-55.755h222.775v55.755z m0 0" fill="#515151" p-id="2535" data-spm-anchor-id="a313x.7781069.0.i5" class=""></path></svg>