<?xml version="1.0" standalone="no"?><!DOCTYPE svg PUBLIC "-//W3C//DTD SVG 1.1//EN" "http://www.w3.org/Graphics/SVG/1.1/DTD/svg11.dtd"><svg t="1542781458732" class="icon" style="" viewBox="0 0 1024 1024" version="1.1" xmlns="http://www.w3.org/2000/svg" p-id="3312" xmlns:xlink="http://www.w3.org/1999/xlink" width="200" height="200"><defs><style type="text/css"></style></defs><path d="M1000.951431 333.298076c-0.703949-0.575958-1.343903-1.343903-2.047852-1.855866L585.10958 23.688523C545.048484-7.541213 483.86892-7.86119 439.520135 22.920578l-0.575958 0.447968L25.022186 331.44221c-0.703949 0.575958-1.535889 1.151916-2.047852 1.727875-21.502441 20.350525-28.605926 53.564117-18.366668 82.234038 10.239258 28.41394 35.261444 48.316497 63.86737 48.316497h66.939146v439.648126c0 66.61917 51.132293 120.631254 113.335784 120.631254h526.233848c62.331481 0 113.335783-54.012084 113.335783-120.631254V463.912606h67.067137c28.477935 0 53.692107-20.030548 63.931365-48.380492a78.586302 78.586302 0 0 0-18.366668-82.234038z" fill="#2c2c2c" p-id="3313"></path><path d="M983.352707 396.781473c-1.407898 3.839722-6.911499 17.79071-21.886413 17.790711h-91.705352c-12.543091 0-22.398376 7.551453-22.398376 21.118468v473.437676c-0.063995 40.509063-30.909759 73.338683-69.050994 73.722655H244.398281c-38.20523-0.255981-69.114989-33.021606-69.114989-73.722655V435.690652c0-13.439026-9.727295-21.118469-22.334381-21.118468H61.371551c-14.782928 0-20.478515-13.950989-21.886414-17.790711-1.343903-3.839722-4.799652-17.342743 5.567597-28.157958L463.58239 56.774124C492.572289 36.743576 533.465324 36.295609 559.191459 56.326156l418.849633 312.233363c10.111267 10.815216 6.719513 24.382232 5.311615 28.221954z" fill="#FFFFFF" p-id="3314"></path><path d="M685.582295 655.130743l-130.678526 130.294554a46.844604 46.844604 0 0 1-65.78723 0l-130.678526-130.294554c-44.988738-44.860748-47.164581-118.263426-2.62381-164.468076a116.727537 116.727537 0 0 1 161.52429-5.759582 7.16748 7.16748 0 0 0 9.215332 0 116.791533 116.791533 0 0 1 161.588285 5.759582c44.540771 46.20465 42.428924 119.607328-2.559815 164.468076z" fill="#1296db" p-id="3315"></path></svg>