<?xml version="1.0" standalone="no"?><!DOCTYPE svg PUBLIC "-//W3C//DTD SVG 1.1//EN" "http://www.w3.org/Graphics/SVG/1.1/DTD/svg11.dtd"><svg t="1542781723385" class="icon" style="" viewBox="0 0 1069 1024" version="1.1" xmlns="http://www.w3.org/2000/svg" p-id="6034" xmlns:xlink="http://www.w3.org/1999/xlink" width="208.7890625" height="200"><defs><style type="text/css"></style></defs><path d="M247.10656 660.21888L16.60416 407.23456l39.26016-63.71328 294.30784-43.10016L501.9648 30.58176l89.95328 16.86528 138.67008 264.21248 303.5904 57.1392v72.1664l-206.14144 219.25376 43.10016 296.0896-61.83936 46.86848-260.48512-136.82176-266.10688 136.82176-78.70976-18.7392 43.1104-324.21888z" fill="#afcd50" p-id="6035" data-spm-anchor-id="a313x.7781069.0.i26" class="selected"></path><path d="M368.91136 294.79424L921.55904 542.72l112.61952-101.75488L1003.47904 363.52l-294.4-56.32-128.4096-276.61824H492.5952L368.91136 294.79424z" fill="#FFFFFF" p-id="6036"></path><path d="M1061.04832 379.2128a107.50976 107.50976 0 0 0-86.74304-70.26176l-237.91616-34.88256-103.27552-211.21024C615.2448 26.24 576.7168 2.57536 534.98368 2.57536c-41.62048 0-80.10752 23.64928-98.03264 60.25728L333.60384 274.0224l-237.81376 34.90304C55.73632 314.3424 22.4512 341.37088 8.9088 379.50976c-13.25056 37.94432-3.1488 80.51712 25.6768 108.40064l174.82752 172.01664-40.52992 238.24896c-6.8352 39.94112 10.89536 80.85504 45.29664 104.33024a112 112 0 0 0 62.02368 18.66752c17.9456 0 35.85536-4.37248 51.86048-12.69248l206.97088-109.85984 207.11936 109.95712a112.06144 112.06144 0 0 0 51.82464 12.86656h0.02048a110.5408 110.5408 0 0 0 62.17216-19.05664c34.19648-23.2448 51.86048-64.11776 45.02016-104.1152l-40.51968-238.36672 174.80704-171.99104c28.85632-28.02176 38.90688-70.656 25.56928-108.70272zM242.27328 910.76096l47.06816-276.62848-202.61888-199.35744c-8.25856-7.89504-11.20256-19.97312-7.56736-30.5664 4.31616-11.7248 14.70464-19.97312 27.30496-21.5552l276.8384-40.63744 120.48896-246.4768c5.5296-11.27424 17.79712-18.56 31.25248-18.56h1.22368c12.98432 0.41984 24.68864 7.59296 30.03904 18.5088l120.52992 246.50752 276.79744 40.58112c12.81536 1.8432 23.24992 10.04032 27.2128 21.31968a29.72672 29.72672 0 0 1-7.57248 30.99136l-202.53696 199.25504 47.02208 276.55168a30.0544 30.0544 0 0 1-13.29664 30.03904 37.43744 37.43744 0 0 1-20.79232 6.13376 36.51072 36.51072 0 0 1-16.72704-4.06528l-241.92512-128.40448-241.664 128.29696c-11.75552 6.08256-26.69056 5.23776-37.47328-1.79712-10.368-7.07584-15.58528-18.62144-13.60384-30.13632z" fill="#333333" p-id="6037"></path><path d="M417.024 512a28.1088 28.1088 0 0 1-27.81184-27.3408c0-2.97984-1.23392-73.63072 46.6432-122.5984 28.70784-29.3632 67.8912-44.24704 116.44928-44.24704a27.91936 27.91936 0 0 1 27.91936 27.92448 27.91936 27.91936 0 0 1-27.91936 27.92448c-32.8704 0-58.5472 9.1648-76.34944 27.22816-30.79168 31.23712-30.976 80.57856-30.95552 82.69824A27.9808 27.9808 0 0 1 417.54624 512h-0.52224z" fill="#333333" p-id="6038"></path></svg>