<?xml version="1.0" standalone="no"?><!DOCTYPE svg PUBLIC "-//W3C//DTD SVG 1.1//EN" "http://www.w3.org/Graphics/SVG/1.1/DTD/svg11.dtd"><svg t="1543505547109" class="icon" style="" viewBox="0 0 1026 1024" version="1.1" xmlns="http://www.w3.org/2000/svg" p-id="10563" id="mx_n_1543505547112" xmlns:xlink="http://www.w3.org/1999/xlink" width="200.390625" height="200"><defs><style type="text/css"></style></defs><path d="M513.097642 513.097642m-510.902358 0a510.902358 510.902358 0 1 0 1021.804716 0 510.902358 510.902358 0 1 0-1021.804716 0Z" fill="#F1543F" p-id="10564"></path><path d="M645.912298 193.783668h-382.178913v638.627948h498.728513V310.333268z" fill="#FFFFFF" p-id="10565"></path><path d="M308.736698 322.307542h88.1107v88.1107h-88.1107z" fill="#54C0EB" p-id="10566"></path><path d="M422.891444 351.744299H717.458585v29.336972H422.891444zM308.736698 446.44085h88.1107v88.110699h-88.1107z" fill="#CED5E0" p-id="10567"></path><path d="M422.891444 475.877607H717.458585v29.336971H422.891444z" fill="#F1543F" p-id="10568"></path><path d="M308.736698 570.574157h88.1107v88.1107h-88.1107z" fill="#2C9984" p-id="10569"></path><path d="M422.891444 600.010914H717.458585v29.336971H422.891444z" fill="#CED5E0" p-id="10570"></path><path d="M308.736698 694.707464h88.1107v88.1107h-88.1107z" fill="#F1543F" p-id="10571"></path><path d="M422.891444 724.144221H717.458585v29.336972H422.891444z" fill="#54C0EB" p-id="10572"></path><path d="M645.912298 310.333268h116.5496L645.912298 193.783668z" fill="#ACB3BA" p-id="10573"></path><path d="M420.795946 238.687195h152.671994v30.933542h-152.671994z" fill="#324A5E" p-id="10574"></path></svg>