<?xml version="1.0" standalone="no"?><!DOCTYPE svg PUBLIC "-//W3C//DTD SVG 1.1//EN" "http://www.w3.org/Graphics/SVG/1.1/DTD/svg11.dtd"><svg t="1543505509654" class="icon" style="" viewBox="0 0 1091 1024" version="1.1" xmlns="http://www.w3.org/2000/svg" p-id="9196" xmlns:xlink="http://www.w3.org/1999/xlink" width="213.0859375" height="200"><defs><style type="text/css"></style></defs><path d="M283.822359 755.985925a352.635762 352.635762 0 1 0 498.693573-498.71098 352.635762 352.635762 0 1 0-498.693573 498.71098Z" fill="#E9EAEB" p-id="9197"></path><path d="M967.035762 412.312583v298.384106c0 23.056954-17.631788 40.688742-40.688742 40.688741h-40.688742v105.790729c0 12.206623-16.275497 18.988079-24.413245 8.137748L732.397351 751.38543H533.022517c-23.056954 0-40.688742-17.631788-40.688742-40.688741v-298.384106c0-23.056954 17.631788-40.688742 40.688742-40.688742h393.324503c21.700662 0 40.688742 17.631788 40.688742 40.688742z" fill="#A3D4FF" p-id="9198"></path><path d="M870.739073 884.301987c-8.137748 0-14.919205-2.712583-20.344371-9.49404l-123.422517-111.215894H533.022517c-29.838411 0-54.251656-24.413245-54.251656-54.251656v-298.384106c0-29.838411 24.413245-54.251656 54.251656-54.251655h393.324503c29.838411 0 54.251656 24.413245 54.251655 54.251655v298.384106c0 29.838411-24.413245 54.251656-54.251655 54.251656h-27.125828v92.227815c0 12.206623-6.781457 21.700662-17.631788 25.769536-4.068874 1.356291-6.781457 2.712583-10.850331 2.712583zM533.022517 385.186755c-14.919205 0-27.125828 12.206623-27.125828 27.125828v298.384106c0 14.919205 12.206623 27.125828 27.125828 27.125828h204.8l134.272847 119.353642v-119.353642h54.251656c14.919205 0 27.125828-12.206623 27.125828-27.125828v-298.384106c0-14.919205-12.206623-27.125828-27.125828-27.125828h-393.324503z" fill="#2A5082" p-id="9199"></path><path d="M804.280795 656.445033h-27.125828v-135.629139c0-14.919205-12.206623-27.125828-27.125828-27.125828h-13.562914c-14.919205 0-27.125828 12.206623-27.125828 27.125828v135.629139h-27.125827v-135.629139c0-29.838411 24.413245-54.251656 54.251655-54.251656h13.562914c29.838411 0 54.251656 24.413245 54.251656 54.251656v135.629139z" fill="#2A5082" p-id="9200"></path><path d="M695.777483 561.504636h94.940398v27.125828h-94.940398z" fill="#2A5082" p-id="9201"></path><path d="M126.135099 276.683444v298.384106c0 23.056954 17.631788 40.688742 40.688742 40.688741h40.688742v105.790729c0 12.206623 16.275497 18.988079 24.413245 8.137748l128.847682-115.284768h200.731126c23.056954 0 40.688742-17.631788 40.688741-40.688742v-298.384106c0-23.056954-17.631788-40.688742-40.688741-40.688741h-393.324504c-24.413245 1.356291-42.045033 18.988079-42.045033 42.045033z" fill="#FFFFFF" p-id="9202"></path><path d="M221.075497 748.672848c-2.712583 0-6.781457 0-9.49404-1.356292-10.850331-4.068874-17.631788-13.562914-17.631788-25.769536v-92.227815h-27.125828c-29.838411 0-54.251656-24.413245-54.251656-54.251655v-298.384106c0-29.838411 24.413245-54.251656 54.251656-54.251656h393.324503c29.838411 0 54.251656 24.413245 54.251656 54.251656v298.384106c0 29.838411-24.413245 54.251656-54.251656 54.251655H364.842384l-123.422516 111.215894c-6.781457 4.068874-13.562914 8.137748-20.344371 8.137749z m-54.251656-499.115232c-14.919205 0-27.125828 12.206623-27.125828 27.125828v298.384106c0 14.919205 12.206623 27.125828 27.125828 27.125827h54.251656v119.353643l1.356291-1.356292 131.560265-117.997351h204.8c14.919205 0 27.125828-12.206623 27.125828-27.125827v-298.384106c0-14.919205-12.206623-27.125828-27.125828-27.125828H166.823841z" fill="#2A5082" p-id="9203"></path><path d="M370.26755 520.815894h-27.125828c-29.838411 0-54.251656-24.413245-54.251656-54.251656v-81.377483c0-29.838411 24.413245-54.251656 54.251656-54.251656h27.125828c29.838411 0 54.251656 24.413245 54.251655 54.251656v81.377483c0 29.838411-24.413245 54.251656-54.251655 54.251656z m-27.125828-162.754967c-14.919205 0-27.125828 12.206623-27.125828 27.125828v81.377483c0 14.919205 12.206623 27.125828 27.125828 27.125828h27.125828c14.919205 0 27.125828-12.206623 27.125827-27.125828v-81.377483c0-14.919205-12.206623-27.125828-27.125827-27.125828h-27.125828z" fill="#2A5082" p-id="9204"></path><path d="M373.698967 474.837616l19.17796-19.17796 54.658543 54.658543-19.164397 19.191523z" fill="#2A5082" p-id="9205"></path></svg>