<?xml version="1.0" standalone="no"?><!DOCTYPE svg PUBLIC "-//W3C//DTD SVG 1.1//EN" "http://www.w3.org/Graphics/SVG/1.1/DTD/svg11.dtd"><svg t="1543558478696" class="icon" style="" viewBox="0 0 1024 1024" version="1.1" xmlns="http://www.w3.org/2000/svg" p-id="1269" xmlns:xlink="http://www.w3.org/1999/xlink" width="200" height="200"><defs><style type="text/css"></style></defs><path d="M266.664 773.808l-90.144 7.576 12.424-88.84z" fill="#7FE6F9" p-id="1270"></path><path d="M869.34 263.576l-43.676 43.672a30.868 30.868 0 0 1-43.652 0 30.86 30.86 0 0 1 0 43.652l-392.992 392.976a30.636 30.636 0 0 1-5.412 4.256 38.04 38.04 0 0 1-29.864 26.736l-177.4 37.932a30.864 30.864 0 0 1-30.868-30.868l37.94-177.392a38.04 38.04 0 0 1 26.736-29.864 30.872 30.872 0 0 1 4.256-5.412l392.992-392.968a30.868 30.868 0 0 1 43.652 0 30.868 30.868 0 0 1 0-43.652l43.676-43.676a30.872 30.872 0 0 1 43.656 0l130.956 130.952a30.86 30.86 0 0 1 0 43.656zM187.924 772.052l152.144-34.852-118.028-117.136zM626.664 212.336l-377.248 377.232 119.304 119.304 377.252-377.236z" fill="#8A74FB" p-id="1271"></path><path d="M96 882.24h824.16a20 20 0 1 1 0 40H96a20 20 0 0 1 0-40z m435.88-100.28h392.08a20 20 0 0 1 0 40h-392.08a20 20 0 0 1 0-40z" fill="#8A74FB" p-id="1272"></path></svg>