<?xml version="1.0" standalone="no"?><!DOCTYPE svg PUBLIC "-//W3C//DTD SVG 1.1//EN" "http://www.w3.org/Graphics/SVG/1.1/DTD/svg11.dtd"><svg t="1543153689892" class="icon" style="" viewBox="0 0 1024 1024" version="1.1" xmlns="http://www.w3.org/2000/svg" p-id="1299" xmlns:xlink="http://www.w3.org/1999/xlink" width="200" height="200"><defs><style type="text/css"></style></defs><path d="M975.685818 372.456727c-2.792727-9.402182-12.381091-14.987636-21.969454-12.753454-18.990545 4.282182-39.284364 2.420364-57.250909-5.306182-18.525091-7.912727-33.698909-21.410909-43.845819-39.005091-10.146909-17.501091-14.242909-37.422545-11.822545-57.437091 2.327273-19.362909 10.798545-37.981091 24.017454-52.224 6.609455-7.168 6.609455-18.245818-0.09309-25.413818-65.536-69.632-149.038545-117.946182-241.664-139.636364-9.495273-2.234182-19.176727 3.258182-22.062546 12.567273-5.771636 18.525091-17.594182 35.188364-33.233454 46.917818-16.197818 12.101818-35.467636 18.525091-55.668364 18.525091-20.293818 0-39.563636-6.423273-55.668364-18.525091-15.639273-11.729455-27.461818-28.392727-33.233454-46.917818-2.885818-9.309091-12.474182-14.801455-22.062546-12.567273-92.532364 21.690182-176.128 70.004364-241.664 139.636364-6.702545 7.074909-6.795636 18.245818-0.093091 25.413818 13.125818 14.242909 21.690182 32.861091 24.017455 52.224 2.420364 20.014545-1.675636 39.936-11.822546 57.437091-10.146909 17.594182-25.320727 30.999273-43.845818 39.005091-17.966545 7.726545-38.353455 9.588364-57.250909 5.306182a18.692655 18.692655 0 0 0-22.155636 12.753454C34.816 417.605818 27.927273 464.523636 27.927273 512s6.888727 94.394182 20.386909 139.543273c2.792727 9.402182 12.381091 14.987636 21.969454 12.753454 18.990545-4.282182 39.284364-2.420364 57.250909 5.306182 18.525091 7.912727 33.698909 21.410909 43.845819 39.005091 10.146909 17.501091 14.242909 37.422545 11.822545 57.437091-2.327273 19.362909-10.798545 37.981091-24.017454 52.224-6.609455 7.168-6.609455 18.245818 0.09309 25.413818 65.536 69.632 149.038545 117.946182 241.664 139.636364 9.495273 2.234182 19.176727-3.258182 22.062546-12.567273 5.771636-18.525091 17.594182-35.188364 33.233454-46.917818 16.197818-12.101818 35.467636-18.525091 55.668364-18.525091 20.293818 0 39.563636 6.423273 55.668364 18.525091 15.639273 11.729455 27.461818 28.392727 33.233454 46.917818 2.420364 7.912727 9.774545 13.125818 17.780364 13.125818 1.396364 0 2.792727-0.186182 4.282182-0.465454 92.532364-21.690182 176.128-70.004364 241.664-139.636364 6.702545-7.074909 6.795636-18.245818 0.093091-25.413818-13.125818-14.242909-21.690182-32.861091-24.017455-52.224-2.420364-20.014545 1.675636-39.936 11.822546-57.437091 10.146909-17.594182 25.320727-30.999273 43.845818-39.005091 17.966545-7.726545 38.353455-9.588364 57.250909-5.306182 9.495273 2.141091 19.083636-3.444364 21.969454-12.753454 13.591273-45.056 20.386909-92.066909 20.386909-139.543273s-6.702545-94.580364-20.200727-139.636364z m-31.371636 252.834909c-21.224727-1.768727-42.914909 1.675636-62.557091 10.053819-26.065455 11.170909-47.290182 30.068364-61.44 54.644363-14.149818 24.576-19.921455 52.410182-16.570182 80.430546 2.513455 21.224727 10.333091 41.704727 22.528 59.205818-54.830545 54.272-122.135273 93.184-196.235636 113.384727-9.029818-19.269818-22.900364-36.305455-40.029091-49.152-22.621091-16.942545-49.617455-25.879273-78.010182-25.879273s-55.389091 8.936727-78.010182 25.879273c-17.128727 12.846545-30.999273 29.882182-40.029091 49.152-74.100364-20.200727-141.312-59.112727-196.235636-113.384727 12.101818-17.501091 20.014545-37.981091 22.528-59.205818 3.351273-28.113455-2.420364-55.947636-16.570182-80.430546-14.149818-24.576-35.467636-43.473455-61.44-54.644363-19.642182-8.378182-41.332364-11.822545-62.557091-10.053819C70.004364 588.520727 65.163636 550.446545 65.163636 512s4.840727-76.520727 14.522182-113.291636c21.224727 1.768727 42.914909-1.675636 62.557091-10.053819 26.065455-11.170909 47.290182-30.068364 61.44-54.644363 14.149818-24.576 19.921455-52.410182 16.570182-80.430546-2.513455-21.224727-10.333091-41.704727-22.528-59.205818C252.555636 140.101818 319.860364 101.189818 393.960727 80.989091c9.029818 19.269818 22.900364 36.305455 40.029091 49.152 22.621091 16.942545 49.617455 25.879273 78.010182 25.879273s55.389091-8.936727 78.010182-25.879273c17.128727-12.846545 30.999273-29.882182 40.029091-49.152 74.100364 20.200727 141.312 59.112727 196.235636 113.384727-12.101818 17.501091-20.014545 37.981091-22.528 59.205818-3.351273 28.113455 2.420364 55.947636 16.570182 80.430546 14.149818 24.576 35.467636 43.473455 61.44 54.644363 19.642182 8.378182 41.332364 11.822545 62.557091 10.053819 9.588364 36.864 14.522182 74.845091 14.522182 113.291636s-4.840727 76.520727-14.522182 113.291636z" fill="#353535" p-id="1300"></path><path d="M662.062545 435.013818c-9.588364 3.630545-14.429091 14.429091-10.798545 24.017455 6.423273 16.849455 9.681455 34.722909 9.681455 52.968727 0 82.106182-66.839273 148.945455-148.945455 148.945455s-148.945455-66.839273-148.945455-148.945455 66.839273-148.945455 148.945455-148.945455c32.116364 0 62.650182 10.053818 88.343273 29.044364 8.285091 6.144 19.921455 4.375273 26.065454-3.909818 6.144-8.285091 4.375273-19.921455-3.909818-26.065455-32.209455-23.738182-70.376727-36.305455-110.498909-36.305454-102.679273 0-186.181818 83.502545-186.181818 186.181818s83.502545 186.181818 186.181818 186.181818 186.181818-83.502545 186.181818-186.181818c0-22.807273-4.096-45.056-12.101818-66.187636-3.723636-9.681455-14.429091-14.429091-24.017455-10.798546z" fill="#FEC500" p-id="1301"></path></svg>