<?xml version="1.0" standalone="no"?><!DOCTYPE svg PUBLIC "-//W3C//DTD SVG 1.1//EN" "http://www.w3.org/Graphics/SVG/1.1/DTD/svg11.dtd"><svg t="1542781636709" class="icon" style="" viewBox="0 0 1024 1024" version="1.1" xmlns="http://www.w3.org/2000/svg" p-id="4615" xmlns:xlink="http://www.w3.org/1999/xlink" width="200" height="200"><defs><style type="text/css"></style></defs><path d="M176 809V185c0-17.7-14.3-32-32-32s-32 14.3-32 32v656c0 17.7 14.3 32 32 32h736c17.7 0 32-14.3 32-32s-14.3-32-32-32H176z" fill="#2c2c2c" p-id="4616" data-spm-anchor-id="a313x.7781069.0.i15" class=""></path><path d="M482.1 335.6l-181 181c-12.5 12.5-12.5 32.8 0 45.3s32.8 12.5 45.3 0l158.4-158.4 158.4 158.4c12.5 12.5 32.8 12.5 45.3 0l181-181c12.5-12.5 12.5-32.8 0-45.3s-32.8-12.5-45.3 0L685.7 494 527.3 335.6c-12.5-12.5-32.7-12.5-45.2 0z" fill="#e98f36" p-id="4617" data-spm-anchor-id="a313x.7781069.0.i16" class="selected"></path></svg>