<?xml version="1.0" standalone="no"?><!DOCTYPE svg PUBLIC "-//W3C//DTD SVG 1.1//EN" "http://www.w3.org/Graphics/SVG/1.1/DTD/svg11.dtd"><svg t="1543591315459" class="icon" style="" viewBox="0 0 1024 1024" version="1.1" xmlns="http://www.w3.org/2000/svg" p-id="5350" xmlns:xlink="http://www.w3.org/1999/xlink" width="200" height="200"><defs><style type="text/css"></style></defs><path d="M430.48 631.58a82.86 82.86 0 0 1-46.55-13.92c-42.05-27.77-68.49-94.8-85.71-217.36-4.81-34.2 0.56-65.07 16-91.77 13-22.62 33.18-41.49 58.21-54.58 46.46-24.29 100.92-24.62 126.69-0.76a15 15 0 0 1-20.38 22c-14.32-13.26-54.87-14.29-92.41 5.34-20 10.45-35.93 25.31-46.12 43-12 20.76-16.1 45.19-12.24 72.6 9.88 70.32 28.16 167.2 72.53 196.5 14.21 9.38 30.65 11.36 50.27 6.06a15 15 0 1 1 7.83 29 107.56 107.56 0 0 1-28.12 3.89z" fill="#F0F0FF" p-id="5351"></path><path d="M409.24 630.06a82.86 82.86 0 0 1-46.55-13.92c-42.05-27.77-68.49-94.8-85.71-217.36-5-35.63 2-68.15 20.72-96.65 15.61-23.73 38.95-43.51 67.47-57.19 23.05-11.06 48.29-17.4 71.06-17.86 25-0.5 45.41 6.23 57.39 19 43 45.71 15.1 121.45 10.86 132.11-7.86 32-9.77 80.2-4.33 108.88 3.05 8.62 17.69 54.59-1.9 93.19-11.47 22.61-32 38-60.94 45.88a107.56 107.56 0 0 1-28.07 3.92zM438.95 257c-17.38 0-39.08 4.58-60.8 15-16.47 7.9-39.44 22.4-55.38 46.63-14.63 22.23-20 47.8-16.07 76 9.88 70.32 28.15 167.2 72.53 196.5 14.21 9.38 30.65 11.36 50.27 6.06 20.7-5.6 34.44-15.57 42-30.49 15-29.63 0.31-69.8 0.15-70.2l-0.46-1.19L471 494c-7.37-36.89-3.41-92.1 4.69-124.18l0.28-1.09 0.44-1c0.27-0.65 27.38-67.11-4.58-101.09-5.83-6.16-17.71-9.64-32.88-9.64z" fill="#2828E0" p-id="5352"></path><path d="M579 771c-14.12 0-28.61-3.62-43.35-10.85-26.93-13.21-44.11-32.27-51.06-56.66-11.86-41.63 11.28-84 15.92-91.84 10.82-27.11 18.15-74.83 16.53-107.71-2.1-11.27-15.04-90.94 35.9-127.6 14.19-10.22 35.49-12.95 60-7.67 22.26 4.8 45.83 15.84 66.34 31.09 25.39 18.87 44.52 42.74 55.32 69 13 31.56 13.61 64.81 1.9 98.83-40.29 117-79 177.78-125.61 197A82.71 82.71 0 0 1 579 771z m-52.27-144.69c-0.44 0.72-22.45 37-13.22 69.09 4.61 16 16.19 28.4 35.39 37.82 18.25 9 34.77 10.14 50.5 3.65 49.15-20.3 85.58-111.91 108.69-179 9.27-26.92 8.84-53-1.28-77.66-11-26.83-30.81-45.44-45.47-56.34-36.21-26.91-76.22-33.7-90.88-23.15-15.45 11.12-24.21 30.69-26.06 58.16a166.59 166.59 0 0 0 2.27 40.2 15 15 0 0 1 0.29 2.23c1.83 33-4.81 88-19.09 122.79a15.09 15.09 0 0 1-1.14 2.21zM514 618.37z" fill="#DD3438" p-id="5353"></path></svg>