<?xml version="1.0" standalone="no"?><!DOCTYPE svg PUBLIC "-//W3C//DTD SVG 1.1//EN" "http://www.w3.org/Graphics/SVG/1.1/DTD/svg11.dtd"><svg t="1542852715405" class="icon" style="" viewBox="0 0 1024 1024" version="1.1" xmlns="http://www.w3.org/2000/svg" p-id="2680" xmlns:xlink="http://www.w3.org/1999/xlink" width="200" height="200"><defs><style type="text/css"></style></defs><path d="M545.40318827 741.94368133c17.92703905 17.92703905 17.92703905 46.98039182 0 64.90743087-17.92703905 17.92703905-46.98039182 17.92703905-64.90743086 0L26.13628839 352.49040164c-17.92703905-17.92703905-17.92703905-46.98039182-1e-8-64.90743088 17.92703905-17.92703905 46.98039182-17.92703905 64.90743089 0l454.359469 454.36071057z" fill="#989898" p-id="2681"></path><path d="M939.47266481 287.58297076c17.92703905-17.92703905 46.98039182-17.92703905 64.90743209 0 17.92703905 17.92703905 17.92703905 46.98039182-1e-8 64.90743088l-454.36071176 454.36071056c-17.92703905 17.92703905-46.98039182 17.92703905-64.90743088 0-17.92703905-17.92703905-17.92703905-46.98039182 0-64.90743087L939.47266481 287.58297076z" fill="#989898" p-id="2682"></path></svg>