<?xml version="1.0" standalone="no"?><!DOCTYPE svg PUBLIC "-//W3C//DTD SVG 1.1//EN" "http://www.w3.org/Graphics/SVG/1.1/DTD/svg11.dtd"><svg t="1543505378714" class="icon" style="" viewBox="0 0 1024 1024" version="1.1" xmlns="http://www.w3.org/2000/svg" p-id="8081" xmlns:xlink="http://www.w3.org/1999/xlink" width="200" height="200"><defs><style type="text/css"></style></defs><path d="M492 202.026l1.665-0.8 160.988-73.589-160.966-62.334-1.687-0.678z" fill="#F45656" p-id="8082"></path><path d="M856 631V464H166v167H63v327H390V715h244v243h325V631H856zM166 795H89v-79h77v79z m143 0h-78v-79h78v79z m1-164h-79v-79h79v79z m161 0h-78v-79h78v79z m162 0h-79v-79h79v79z m159 164h-78v-79h78v79z m3-164h-79v-79h79v79z m140 164h-78v-79h78v79z" fill="#BDCCD4" p-id="8083"></path><path d="M925.911 464l-38.507-155H494V201.226l-2 0.8V64.625l2 0.678V62h-35v247H134.763L96.256 464h759.642z" fill="#F29440" p-id="8084"></path><path d="M390 715h244v243H390z" fill="#808C9B" p-id="8085"></path></svg>