<?xml version="1.0" standalone="no"?><!DOCTYPE svg PUBLIC "-//W3C//DTD SVG 1.1//EN" "http://www.w3.org/Graphics/SVG/1.1/DTD/svg11.dtd"><svg t="1545641164777" class="icon" style="" viewBox="0 0 1024 1024" version="1.1" xmlns="http://www.w3.org/2000/svg" p-id="2149" xmlns:xlink="http://www.w3.org/1999/xlink" width="200" height="200"><defs><style type="text/css"></style></defs><path d="M768.569464 297.156724c-4.659252-4.659252-9.318504-9.111426-14.184833-13.5636l27.644894-31.061678c5.384024 4.86633 10.353893 9.836198 15.841456 15.013144zM512 956.803236c-10.353893 0-20.707786 0-31.061678-1.138929l3.209706-41.415571a345.095248 345.095248 0 0 0 40.069566 0.828312l1.346006 41.415571c-4.348635 0.310617-9.007887 0.310617-13.5636 0.310617z m58.188878-4.141558l-5.901719-41.415571a365.492417 365.492417 0 0 0 39.241254-7.868958l10.353892 40.069565a388.478059 388.478059 0 0 1-43.693427 9.111426z m-133.254601-2.795551a388.167442 388.167442 0 0 1-43.279272-10.353892l12.114055-39.551871a385.993124 385.993124 0 0 0 38.827098 9.525581zM656.954499 930.29727l-14.806066-38.723559A369.737513 369.737513 0 0 0 677.662285 875.21456l19.051163 36.75632A421.299899 421.299899 0 0 1 656.954499 930.29727z m-304.715065-6.522953a409.289383 409.289383 0 0 1-39.862488-19.983013l20.707786-35.928008a361.143782 361.143782 0 0 0 35.824469 17.912235z m383.301112-34.374924l-22.882103-34.478463a373.671992 373.671992 0 0 0 31.993529-24.021031L770.847321 862.68635a405.665521 405.665521 0 0 1-35.306775 26.713043zM274.37816 880.08089a392.101921 392.101921 0 0 1-34.582002-28.266128l27.95551-31.061678a364.560566 364.560566 0 0 0 31.061679 25.367037z m529.39454-47.420829l-29.922751-28.576745a364.457027 364.457027 0 0 0 26.09181-30.440444L832.970677 798.285137a394.586855 394.586855 0 0 1-29.197977 33.857229zM208.63094 819.510617A387.028514 387.028514 0 0 1 180.67543 784.41092l33.857229-23.710414a379.987867 379.987867 0 0 0 24.745804 31.061678z m649.292619-58.085339L822.616785 739.99272a383.818807 383.818807 0 0 0 18.740546-35.306775l37.584631 17.291001a410.428311 410.428311 0 0 1-21.018403 39.448332zM157.48271 746.619211a397.485945 397.485945 0 0 1-19.154702-40.276643l38.309404-15.737917a348.822649 348.822649 0 0 0 17.187462 36.135086zM895.094034 680.457836l-39.344792-13.045905a347.994338 347.994338 0 0 0 10.353892-38.62002l40.58726 8.593731A399.97088 399.97088 0 0 1 895.094034 680.457836zM123.729019 664.098686a383.611729 383.611729 0 0 1-10.353893-43.48635l41.415572-6.83357a354.827907 354.827907 0 0 0 8.800809 39.034176z m790.105561-70.820627l-41.415571-4.038019c1.138928-11.906977 1.760162-24.12457 1.760162-36.238624V548.75632h41.415571v4.141557a400.385035 400.385035 0 0 1-1.760162 40.380182zM108.819414 576.297674Q108.19818 564.804853 108.19818 553.001416c0-7.144186 0-14.184833 0.517695-21.32902l41.415571 2.174318v19.154702c0 6.419414 0 14.081294 0.621233 20.707785z m762.978362-67.093225a364.146411 364.146411 0 0 0-7.040648-39.344793l40.380182-9.525581a420.575126 420.575126 0 0 1 7.76542 44.004044zM154.376542 494.087765l-40.897877-6.73003a408.564611 408.564611 0 0 1 9.73266-43.589889l39.862487 11.182205a351.100506 351.100506 0 0 0-8.69727 39.137714z m699.094843-62.123357a338.468756 338.468756 0 0 0-15.530839-36.859858l37.274014-18.222851a398.314257 398.314257 0 0 1 17.291001 41.415571zM176.016178 417.054803l-38.412942-15.530839a421.921132 421.921132 0 0 1 19.051162-40.380182l36.445703 19.672396a349.547422 349.547422 0 0 0-17.083923 36.238625z m642.45905-57.464105a372.740142 372.740142 0 0 0-23.19272-32.614763l32.304145-25.884732A385.889585 385.889585 0 0 1 853.678463 337.433367z m-604.460263-12.838827l-33.960769-23.606876a390.23822 390.23822 0 0 1 27.334277-35.203236l31.061679 27.230738a344.681092 344.681092 0 0 0-24.435187 31.579374zM267.441052 285.663903l-28.05905-30.543984q8.076036-7.247725 16.46269-14.288372l26.298887 31.993529c-5.073407 4.141557-9.939737 8.490192-14.702527 12.838827z" fill="#282D33" p-id="2150"></path><path d="M512 770.640243a144.022649 144.022649 0 0 0-127.767037-143.090799v253.359757A144.022649 144.022649 0 0 0 512 1024zM512 770.640243a144.022649 144.022649 0 0 1 127.767037-143.090799v253.359757A144.022649 144.022649 0 0 1 512 1024z" fill="#34CA9D" p-id="2151"></path><path d="M340.746613 23.710415v301.712436A171.667543 171.667543 0 0 0 492.63822 495.951466V194.13549A171.460465 171.460465 0 0 0 340.746613 23.710415z" fill="#FFFFFF" p-id="2152"></path><path d="M512 518.937108l-21.846714-2.484934a191.857634 191.857634 0 0 1-170.425076-191.029323V33.132457v-10.353893l1.553084-22.15733 21.743175 2.484934a191.961173 191.961173 0 0 1 170.632154 191.029322V496.986855zM361.143782 48.559757v276.863094a150.649141 150.649141 0 0 0 111.09727 145.575733V194.13549A150.649141 150.649141 0 0 0 361.143782 48.559757z" fill="#282D33" p-id="2153"></path><path d="M420.885743 261.953488v208.838019a171.564004 171.564004 0 0 0 262.678261-144.9545V33.132457v-9.422042c-7.558342-0.724772-15.220222-1.138928-22.985642-1.138929A239.382002 239.382002 0 0 0 420.885743 261.953488z" fill="#FFFFFF" p-id="2154"></path><path d="M512 517.694641a192.478868 192.478868 0 0 1-102.089383-29.301517l-9.732659-6.108796V261.953488A260.400404 260.400404 0 0 1 660.267745 1.863701c8.179575 0 16.566229 0 25.056421 1.138928l17.705157 1.760162 0.93185 17.808695v302.851365A192.478868 192.478868 0 0 1 512 517.694641z m-70.406471-58.810111a150.959757 150.959757 0 0 0 221.262689-133.461679V43.279272h-2.588473A218.881294 218.881294 0 0 0 441.593529 261.953488z" fill="#282D33" p-id="2155"></path><path d="M512 434.863498a109.233569 109.233569 0 0 1-28.9909-3.83094V261.953488A177.569262 177.569262 0 0 1 621.440647 88.939939v236.482912A109.544186 109.544186 0 0 1 512 434.863498z" fill="#F8C44F" p-id="2156"></path><path d="M472.655207 113.271587a241.038625 241.038625 0 0 1 66.886148-57.981799 307.821234 307.821234 0 0 0-59.327806-32.718302 313.308797 313.308797 0 0 0-58.706572 32.304146 171.253387 171.253387 0 0 1 51.14823 58.395955z" fill="#FFFFFF" p-id="2157"></path><path d="M469.341962 150.856218l-14.909606-27.748432a152.61638 152.61638 0 0 0-45.039434-51.769464l-23.503337-16.566229 23.606876-16.773306a338.572295 338.572295 0 0 1 62.123357-34.478463l8.593731-3.520324 8.179575 3.520324a339.711223 339.711223 0 0 1 63.262286 34.892618l25.884732 18.637007-27.541355 16.048534a220.434378 220.434378 0 0 0-61.087968 53.11547z m-12.942366-93.185035a200.451365 200.451365 0 0 1 18.947623 21.846714A266.61274 266.61274 0 0 1 501.646107 55.911021c-6.833569-3.727401-13.874216-7.247725-21.432558-10.353893-8.386653 3.520324-16.359151 7.558342-23.813953 11.699899z" fill="#282D33" p-id="2158"></path><path d="M512 492.948837z" fill="#FFFFFF" p-id="2159"></path><path d="M491.292214 492.948837h41.415572v529.291001h-41.415572z" fill="#282D33" p-id="2160"></path></svg>