<?xml version="1.0" standalone="no"?><!DOCTYPE svg PUBLIC "-//W3C//DTD SVG 1.1//EN" "http://www.w3.org/Graphics/SVG/1.1/DTD/svg11.dtd"><svg t="1545640440817" class="icon" style="" viewBox="0 0 1536 1024" version="1.1" xmlns="http://www.w3.org/2000/svg" p-id="1636" xmlns:xlink="http://www.w3.org/1999/xlink" width="300" height="200"><defs><style type="text/css"></style></defs><path d="M1339.949994 573.962624z" fill="#FFFFFF" p-id="1637"></path><path d="M1313.55484 573.962624h52.790308v318.853461h-52.790308z" fill="#282D33" p-id="1638"></path><path d="M196.775873 892.816085V167.87318a39.592731 39.592731 0 0 1 38.932852-39.592731h567.495812z" fill="#FFFFFF" p-id="1639"></path><path d="M223.171027 892.816085h-52.790308V167.87318a65.987885 65.987885 0 0 1 65.328006-65.987886h567.495812v52.790309h-567.495812a13.197577 13.197577 0 0 0-12.537698 13.197577z" fill="#282D33" p-id="1640"></path><path d="M279.788633 211.953087h977.016625v596.662456H279.788633z" fill="#F8C44F" p-id="1641"></path><path d="M1392.608326 26.395154H928.317567a43.420028 43.420028 0 0 0-39.592731 46.19152v377.582678a43.420028 43.420028 0 0 0 39.592731 46.191519h71.13494v88.423766l104.52481-88.423766h288.631009a43.420028 43.420028 0 0 0 39.592731-46.191519V72.586674a43.420028 43.420028 0 0 0-39.592731-46.19152z" fill="#FFFFFF" p-id="1642"></path><path d="M973.057353 641.79817v-118.778193h-44.739786a69.815182 69.815182 0 0 1-65.987885-72.586674V72.586674a69.815182 69.815182 0 0 1 65.987885-72.586674h464.290759a69.683207 69.683207 0 0 1 65.987885 72.586674v377.582678a69.683207 69.683207 0 0 1-65.987885 72.586673H1113.611548zM928.317567 52.790308c-6.466813 0-13.197577 8.182498-13.197577 19.796366v377.582678c0 11.613868 7.126692 19.796366 13.197577 19.796365h97.530094V527.90308l68.495424-57.937363h298.265241c6.466813 0 13.197577-8.182498 13.197577-19.796365V72.586674c0-11.613868-7.126692-19.796366-13.197577-19.796366z" fill="#282D33" p-id="1643"></path><path d="M1284.652146 248.378399l-97.926021 56.617606-97.926022 56.485629V135.40714l97.926022 56.48563 97.926021 56.485629zM321.492976 873.679598v-64.008249c0-36.425313 33.38987-65.987885 74.434334-65.987885h326.37608c41.17644 0 74.434334 29.430597 74.434334 65.987885v64.008249z" fill="#34CA9D" p-id="1644"></path><path d="M823.132878 873.679598h-52.790308v-64.008249c0-21.776002-21.512051-39.592731-48.03918-39.592731H395.92731c-26.395154 0-48.03918 17.684753-48.03918 39.592731v64.008249h-52.790308v-64.008249c0-50.942647 45.267689-92.383039 100.829488-92.383039h326.37608c55.561799 0 100.829488 41.308416 100.829488 92.383039z" fill="#282D33" p-id="1645"></path><path d="M620.154144 744.475319l-62.42454 36.161361-62.556515-36.161361V608.012373h124.981055v136.462946z" fill="#FFFFFF" p-id="1646"></path><path d="M557.729604 810.991107l-88.951669-51.338574V581.617219H646.681273v178.035314z m-36.161361-81.693002l36.161361 20.852172L593.890965 729.298105v-94.890578h-72.322722z" fill="#282D33" p-id="1647"></path><path d="M705.278515 406.617348v140.290243c0 80.637196-65.987885 131.97577-146.097177 131.97577-80.769171 0-146.229153-51.602526-146.229153-131.97577V406.617348z" fill="#FFFFFF" p-id="1648"></path><path d="M559.181338 705.542467c-100.037634 0-172.624307-66.77974-172.624307-158.370924V406.617348h52.790308v140.290243c0 62.292563 49.226962 105.580616 119.833999 105.580616s119.702023-43.552004 119.702023-105.580616V406.617348h52.790308v140.290243c0 91.855136-72.586674 158.634876-172.492331 158.634876z" fill="#282D33" p-id="1649"></path><path d="M489.762083 275.433432a76.809898 76.809898 0 0 0-64.404176 34.841603h-26.395154A59.653048 59.653048 0 0 0 339.309705 369.532156v116.138678L409.124887 583.068952v-125.772909a41.968295 41.968295 0 0 1 41.968295-41.968295h241.383684a76.809898 76.809898 0 0 0 76.941874-76.941874v-62.952442z" fill="#FFFFFF" p-id="1650"></path><path d="M435.520041 664.89393l-122.60549-170.776647V369.532156a86.180178 86.180178 0 0 1 86.048202-86.048202h13.197577a102.941101 102.941101 0 0 1 77.337801-34.841603H795.813894v89.347596a103.469004 103.469004 0 0 1-103.337028 103.337028H451.489109A15.573141 15.573141 0 0 0 435.520041 457.296043z m-69.815182-187.801521L382.729733 501.507926v-44.211883a68.495425 68.495425 0 0 1 68.363449-68.363449h241.383684a50.54672 50.54672 0 0 0 50.54672-50.54672v-36.557288H489.762083a50.54672 50.54672 0 0 0-42.364222 22.963784l-7.786571 11.877819h-40.648537A33.257894 33.257894 0 0 0 365.704859 369.532156zM528.826911 790.00696h52.790308v83.672638h-52.790308z" fill="#282D33" p-id="1651"></path><path d="M26.395154 889.252739v70.079134s51.338575 38.272973 88.951669 38.272973h1305.900245c37.74507 0 89.083645-38.272973 89.083645-38.272973v-70.079134z" fill="#FFFFFF" p-id="1652"></path><path d="M1421.247068 1024H115.346823c-45.135713 0-98.717876-39.592731-104.788761-43.552004l-10.558062-7.918546v-109.671865h1536.725867v109.671865l-10.690038 7.918546c-5.93891 4.487176-59.521072 43.552004-104.788761 43.552004zM52.790308 945.474417c18.476608 12.009795 45.399665 26.395154 62.556515 26.395154h1306.560124c17.684753 0 45.135713-14.517335 62.688491-26.395154v-29.826524H52.790308z" fill="#282D33" p-id="1653"></path></svg>