<?xml version="1.0" standalone="no"?><!DOCTYPE svg PUBLIC "-//W3C//DTD SVG 1.1//EN" "http://www.w3.org/Graphics/SVG/1.1/DTD/svg11.dtd"><svg t="1542808173360" class="icon" style="" viewBox="0 0 1024 1024" version="1.1" xmlns="http://www.w3.org/2000/svg" p-id="805" xmlns:xlink="http://www.w3.org/1999/xlink" width="200" height="200"><defs><style type="text/css"></style></defs><path d="M541.2 632.8c-91.1 0-171.8 41.5-223.3 105.5l231.8 231.8c28.1 28.1 73.8 28.1 101.9 0l155.7-155.7c-37.9-105.6-142.6-181.6-266.1-181.6z" fill="#4EEAAB" p-id="806"></path><path d="M970.2 549.8l-496-496a71.91 71.91 0 0 0-50.9-21.1c-2.4 0-4.9 0.1-7.3 0.4L126.9 62.6C92.9 66 66 92.9 62.6 126.9L33.1 416a71.99 71.99 0 0 0 20.7 58.2l495.9 495.9c14.1 14.1 32.5 21.1 50.9 21.1s36.9-7 50.9-21.1L970 651.6c28.3-28.1 28.3-73.7 0.2-101.8zM600.7 912.5l-491-491 28.8-283 283-28.8 491 491-311.8 311.8z" fill="#454563" p-id="807"></path><path d="M310.8 210.4c-49.5 0-89.6 40.1-89.6 89.6s40.1 89.6 89.6 89.6 89.6-40.1 89.6-89.6-40.1-89.6-89.6-89.6z m0 102.4c-7.1 0-12.8-5.7-12.8-12.8 0-7.1 5.7-12.8 12.8-12.8 7.1 0 12.8 5.7 12.8 12.8 0 7.1-5.7 12.8-12.8 12.8z" fill="#454563" p-id="808"></path></svg>