<svg width="1000" height="1000" xmlns="http://www.w3.org/2000/svg">
 <metadata>Svg Vector Icons : http://www.sfont.cn</metadata>

 <g>
  <title>background</title>
  <rect fill="none" id="canvas_background" height="402" width="582" y="-1" x="-1"/>
 </g>
 <g>
  <title>Layer 1</title>
  <g fill="white" id="svg_1">
   <g id="svg_2" transform="translate(0,320) scale(0.10000000149011612,-0.10000000149011612) ">
    <path id="svg_3" d="m645.9,1682.1c-89.7,-21.9 -236.2,-100.6 -273.4,-144.4c-24.1,-28.4 -24.1,-39.4 2.2,-63.4c17.5,-15.3 1067.5,-916.6 2331.9,-2001.6l2303.4,-1970.9l2340.6,2006c2338.4,2005.9 2340.6,2008.1 2292.5,2045.3c-28.4,21.9 -94.1,61.2 -148.8,87.5l-98.4,50.3l-4342.2,4.4c-2388.7,0 -4370.6,-4.4 -4407.8,-13.2z"/>
    <path id="svg_4" d="m8227.8,-371.9c-920.9,-802.8 -1675.6,-1467.8 -1677.8,-1481c-2.2,-10.9 752.5,-665 1677.8,-1448.1l1682.2,-1428.4l0,2909.4c0,1601.3 -2.2,2909.4 -4.4,2907.2c-4.4,-0.1 -759,-658.5 -1677.8,-1459.1z"/>
    <path id="svg_5" d="m110,-1831l0,-2898.4l1677.8,1428.4c923.1,783.1 1677.8,1437.2 1680,1448.1c0,21.9 -3311.9,2915.9 -3340.3,2918.1c-10.9,2.2 -17.5,-1301.5 -17.5,-2896.2z"/>
    <path id="svg_6" d="m2063.4,-3620.4c-940.6,-809.3 -1712.8,-1478.7 -1712.8,-1491.8c-2.2,-10.9 59.1,-56.9 135.6,-98.4l137.8,-76.6l4331.2,-6.6c3775.6,-4.4 4344.4,0 4440.6,28.4c124.7,35 262.5,118.1 262.5,157.5c0,24.1 -3408.1,2959.7 -3436.6,2959.7c-6.6,0 -282.2,-236.2 -612.5,-525l-599.4,-525l-599.4,525c-330.3,288.8 -608.1,525 -619.1,522.8c-8.5,0 -787.2,-662.8 -1727.9,-1470z"/>
   </g>
  </g>
 </g>
</svg>