<?xml version="1.0" standalone="no"?><!DOCTYPE svg PUBLIC "-//W3C//DTD SVG 1.1//EN" "http://www.w3.org/Graphics/SVG/1.1/DTD/svg11.dtd"><svg t="1545114611329" class="icon" style="" viewBox="0 0 1213 1024" version="1.1" xmlns="http://www.w3.org/2000/svg" p-id="4805" xmlns:xlink="http://www.w3.org/1999/xlink" width="236.9140625" height="200"><defs><style type="text/css"></style></defs><path d="M162.523247 42.80481h884.715676L1149.576896 292.985998 657.612483 715.813688a76.558178 76.558178 0 0 1-100.77556 0l-494.112729-439.428315z" fill="#aad08f" p-id="4806" data-spm-anchor-id="a313x.7781069.0.i19" class="selected"></path><path d="M1174.770786 366.614653H39.092716a39.060295 39.060295 0 0 1-32.420045-17.381831A39.060295 39.060295 0 0 1 2.961943 312.516145L109.987151 54.132295A84.370237 84.370237 0 0 1 186.545329 0.033787H1027.318173a83.979634 83.979634 0 0 1 76.362876 54.098508L1210.901558 312.516145a39.060295 39.060295 0 0 1-3.710728 36.716677 39.060295 39.060295 0 0 1-32.420044 17.381831zM97.683158 288.494064h1018.497186L1031.614806 84.208722a9.960375 9.960375 0 0 0-4.687236-6.054345h-839.796337a12.499294 12.499294 0 0 0-4.296632 6.054345z" fill="#3D3D3D" p-id="4807"></path><path d="M690.423131 366.614653H486.137789a39.060295 39.060295 0 0 1-26.951603-10.741581L156.2736 67.412796a39.060295 39.060295 0 0 1 53.903207-56.637428l291.5851 277.718696h173.818312L983.375342 14.876699a39.060295 39.060295 0 0 1 51.75489 58.590442l-318.732005 283.187137a39.060295 39.060295 0 0 1-25.975096 9.960375z" fill="#3D3D3D" p-id="4808"></path><path d="M615.427365 1023.999414a79.683001 79.683001 0 0 1-63.277678-30.857633L9.21159 352.748249A39.060295 39.060295 0 0 1 39.092716 288.494064h1135.67807A39.060295 39.060295 0 0 1 1204.847213 351.57644l-525.360965 640.588834a79.4877 79.4877 0 0 1-63.472979 31.638839zM123.462953 366.614653l488.253684 576.725252 1.171809 1.562412a2.538919 2.538919 0 0 0 1.953015 0 3.320125 3.320125 0 0 0 1.953014 0l1.171809-1.757713 474.191978-576.529951z" fill="#3D3D3D" p-id="4809"></path></svg>