<?xml version="1.0" standalone="no"?><!DOCTYPE svg PUBLIC "-//W3C//DTD SVG 1.1//EN" "http://www.w3.org/Graphics/SVG/1.1/DTD/svg11.dtd"><svg t="1545213402863" class="icon" style="" viewBox="0 0 1031 1024" version="1.1" xmlns="http://www.w3.org/2000/svg" p-id="1945" xmlns:xlink="http://www.w3.org/1999/xlink" width="201.3671875" height="200"><defs><style type="text/css"></style></defs><path d="M626.688 97.28c-2.56 0-4.608 0.512-7.168 0.512 155.136 68.096 263.68 222.72 263.68 403.456 0 180.224-108.544 335.36-263.68 403.456 2.56 0 4.608 0.512 7.168 0.512 222.72 0 403.456-180.736 403.456-403.456 0-223.744-180.736-404.48-403.456-404.48z" fill="#FDC00A" p-id="1946"></path><path d="M807.936 500.736c0-222.72-180.736-403.456-403.456-403.456C181.248 97.28 0.512 278.016 0.512 500.736s180.736 403.456 403.456 403.456c223.232 0.512 403.968-180.224 403.968-403.456z m-246.272 54.272c15.872 0 28.16 12.8 28.16 28.16 0 15.872-12.8 28.16-28.16 28.16H439.296v101.888c0 15.872-12.8 28.16-28.16 28.16h-6.656c-15.872 0-28.16-12.8-28.16-28.16V611.328H247.296c-15.872 0-28.16-12.8-28.16-28.16 0-15.872 12.8-28.16 28.16-28.16h128.512V527.36H247.296c-15.872 0-28.16-12.8-28.16-28.16s12.8-28.16 28.16-28.16h114.688L240.64 348.672c-11.264-11.264-11.264-29.184 0-39.936 11.264-11.264 29.184-11.264 39.936 0l127.488 127.488 127.488-127.488c11.264-11.264 29.184-11.264 39.936 0 11.264 11.264 11.264 29.184 0 39.936L454.656 470.016h107.008c15.872 0 28.16 12.8 28.16 28.16s-12.8 28.16-28.16 28.16H439.296v27.648h122.368z" fill="#FDC00A" p-id="1947"></path></svg>