<?xml version="1.0" standalone="no"?><!DOCTYPE svg PUBLIC "-//W3C//DTD SVG 1.1//EN" "http://www.w3.org/Graphics/SVG/1.1/DTD/svg11.dtd"><svg t="1544578679504" class="icon" style="" viewBox="0 0 1024 1024" version="1.1" xmlns="http://www.w3.org/2000/svg" p-id="4235" xmlns:xlink="http://www.w3.org/1999/xlink" width="200" height="200"><defs><style type="text/css"></style></defs><path d="M138.45718 847.875708a26.83984 26.83984 0 0 1-20.830921-9.843182 508.778075 508.778075 0 0 1-42.566041-59.6886 27.057306 27.057306 0 0 1 46.22862-28.133189 446.708798 446.708798 0 0 0 38.102272 53.404987 27.160316 27.160316 0 0 1-3.548123 38.090827 28.178971 28.178971 0 0 1-17.385807 6.169157z m0 0" p-id="4236" fill="#d4237a"></path><path d="M512.143298 1023.988554a508.869639 508.869639 0 0 1-295.203907-93.544569 27.040138 27.040138 0 0 1 31.189153-44.179865 455.533325 455.533325 0 0 0 264.071982 83.552595c252.637866 0 458.257369-205.505047 458.257369-458.017012s-205.67673-457.936893-458.314597-457.936893S54.011831 259.482312 54.011831 511.994277a456.071267 456.071267 0 0 0 18.415907 128.774006 27.06074 27.06074 0 0 1-51.939955 15.211151A512.76113 512.76113 0 0 1 0.000229 511.994277C0.000229 229.632289 229.815647 0 512.257754 0s512.257525 229.632289 512.257525 511.994277-229.8612 511.994277-512.371981 511.994277z m0 0" p-id="4237" fill="#d4237a"></path><path d="M433.409285 557.948204l16.344261-6.615534-28.396437-28.373545-9.007656 22.227279c-31.910224-17.637609-72.038361-32.825869-121.1856-39.338393 0 0-30.903015 32.802978-36.557121 50.635162 0 0 181.984419 20.464663 256.529357 167.505784v-91.9193s-24.230252-38.914907-77.73825-74.121453z m0 0" p-id="4238" fill="#d4237a"></path><path d="M500.205578 714.889736s-122.227145-157.948741-260.77566-127.686678c0 0-15.405725 39.384175-14.272614 57.227805 0 0 162.183598-38.914907 275.048274 70.401645z m0 0" p-id="4239" fill="#d4237a"></path><path d="M205.299255 671.350822s-4.807136 43.882281 1.21323 61.611455c0 0 152.855466-83.323684 296.371355-3.742699 0 0-166.155208-126.027071-297.584585-57.868756z m562.457756-114.833313c-5.72278-17.843629-36.625795-50.635162-36.625795-50.635161-154.309052 20.441772-219.983681 126.187309-219.983681 126.187309v91.953637c74.625057-147.041121 256.609476-167.505784 256.609476-167.505785z m0 0" p-id="4240" fill="#d4237a"></path><path d="M524.081018 714.889736c112.876122-109.362335 275.05972-70.401645 275.059721-70.401645 1.144556-17.900857-14.28406-57.227805-14.28406-57.227805-138.491287-30.273509-260.77566 127.686678-260.775661 127.686678z m0 0" p-id="4241" fill="#d4237a"></path><path d="M818.987341 671.350822c-131.406485-68.158315-297.584584 57.868756-297.584584 57.868756 143.504443-79.580985 296.440028 3.742698 296.440028 3.742699 5.997474-17.729174 1.144556-61.611455 1.144556-61.611455z m-191.140867-272.026647l-54.354969-54.332077-120.48742 120.441637 54.366415 54.332078z m41.478713-41.753406c0.595169-0.549387 1.201784-1.075883 1.808398-1.682497a38.411302 38.411302 0 0 0-53.794136-54.847128l-0.114456-0.10301-34.886069 34.931852 54.366414 54.320632z m-171.580404 171.683414l-54.366415-54.320632-12.807582 38.834788L458.967222 542.141885z m0 0" p-id="4242" fill="#d4237a"></path></svg>