<?xml version="1.0" standalone="no"?><!DOCTYPE svg PUBLIC "-//W3C//DTD SVG 1.1//EN" "http://www.w3.org/Graphics/SVG/1.1/DTD/svg11.dtd"><svg t="1544112344657" class="icon" style="" viewBox="0 0 1028 1024" version="1.1" xmlns="http://www.w3.org/2000/svg" p-id="1168" xmlns:xlink="http://www.w3.org/1999/xlink" width="200.78125" height="200"><defs><style type="text/css"></style></defs><path d="M429.2 213.3l85.8-148.7 85.8 148.7z" fill="#38C9E5" p-id="1169"></path><path d="M0 959.4l85.7-148.7 85.9 148.7z" fill="#2ED7FF" p-id="1170"></path><path d="M856.8 959.4l85.8-148.7 85.8 148.7z" fill="#00EACA" p-id="1171"></path><path d="M798.2 613h30v276h-30z" fill="#545EFB" p-id="1172"></path><path d="M199.6 614h629.2l-12.7-22H212.4z" fill="#C7C9FD" p-id="1173"></path><path d="M311.8 463.2h406.5v270.7H311.8z" fill="#FFFFFF" p-id="1174"></path><path d="M703.3 478.2v240.7H326.8V478.2h376.5m30-30H296.8v300.7h436.5V448.2z" fill="#545EFB" p-id="1175"></path><path d="M699.8 747.2H334.1l6.9-18.5h352zM228 837H799.2v22.1H228z" fill="#C7C9FD" p-id="1176"></path><path d="M335.1 747.2h364.8v203.9H335.1zM357.3 500.1h79v79h-79zM593.1 499.2h79v79h-79zM540.6 514.5v51h-51v-51h51m14-14h-79v79h79v-79zM422.3 627.2v51h-51v-51h51m14-14h-79v79h79v-79zM658 626.4v51h-51v-51h51m14-14h-79v79h79v-79zM475.6 613.6h79v79h-79zM208.2 613h92v30h-92z" fill="#545EFB" p-id="1177"></path><path d="M199.2 613h30v276h-30z" fill="#545EFB" p-id="1178"></path><path d="M223.2 859h144v30H223.2zM729.2 614h74v30h-74zM664.2 859h161v30H664.2z" fill="#545EFB" p-id="1179"></path><path d="M393.2 805h119v14H393.2zM393.2 880h173v14H393.2zM393.2 843h242v14H393.2z" fill="#FFFFFF" p-id="1180"></path><path d="M295.1 448h438.2L713.2 413H315.3z" fill="#C7C9FD" p-id="1181"></path></svg>