<?xml version="1.0" standalone="no"?><!DOCTYPE svg PUBLIC "-//W3C//DTD SVG 1.1//EN" "http://www.w3.org/Graphics/SVG/1.1/DTD/svg11.dtd"><svg t="1545571784488" class="icon" style="" viewBox="0 0 1024 1024" version="1.1" xmlns="http://www.w3.org/2000/svg" p-id="4991" xmlns:xlink="http://www.w3.org/1999/xlink" width="200" height="200"><defs><style type="text/css"></style></defs><path d="M841 913H185c-17.6 0-32-14.4-32-32s14.4-32 32-32h656c17.6 0 32 14.4 32 32s-14.4 32-32 32z" fill="#E04DFF" p-id="4992"></path><path d="M609 177v320h109.5L513 702.5 307.5 497H417V177h192m32-64H385c-17.7 0-32 14.3-32 32v288H230.2c-28.5 0-42.8 34.5-22.6 54.6l282.8 282.8c6.2 6.2 14.4 9.4 22.6 9.4 8.2 0 16.4-3.1 22.6-9.4l282.8-282.8c20.1-20.1 5.9-54.6-22.6-54.6H673V145c0-17.7-14.3-32-32-32z" fill="#691FFF" p-id="4993"></path></svg>