<?xml version="1.0" standalone="no"?><!DOCTYPE svg PUBLIC "-//W3C//DTD SVG 1.1//EN" "http://www.w3.org/Graphics/SVG/1.1/DTD/svg11.dtd"><svg t="1543591217869" class="icon" style="" viewBox="0 0 1024 1024" version="1.1" xmlns="http://www.w3.org/2000/svg" p-id="2597" xmlns:xlink="http://www.w3.org/1999/xlink" width="200" height="200"><defs><style type="text/css"></style></defs><path d="M171.904 364.416v295.168a109.056 109.056 0 0 0 54.528 94.464l256 147.584a109.056 109.056 0 0 0 109.056 0l256-147.584a109.056 109.056 0 0 0 54.528-94.464V364.416a109.056 109.056 0 0 0-54.528-94.464l-256-147.584a109.056 109.056 0 0 0-109.056 0l-256 147.584a109.056 109.056 0 0 0-54.528 94.464z" fill="#FFFFFF" p-id="2598"></path><path d="M536.448 935.296a128 128 0 0 1-64-17.152l-256-147.584a128 128 0 0 1-64-110.976V364.416a128 128 0 0 1 64-110.976l256-147.584a128 128 0 0 1 128 0l256 147.584a128 128 0 0 1 64 110.976v295.168a128 128 0 0 1-64 110.976l-256 147.584a128 128 0 0 1-64 17.152z m0-808.192a89.6 89.6 0 0 0-44.928 12.032l-256 147.584a89.6 89.6 0 0 0-44.928 77.824v295.04a89.6 89.6 0 0 0 44.928 77.824l256 147.584a89.6 89.6 0 0 0 89.6 0l256-147.584a89.6 89.6 0 0 0 44.928-77.824V364.416a89.6 89.6 0 0 0-44.928-77.824l-256-147.584a89.6 89.6 0 0 0-44.672-11.904z" fill="#501192" p-id="2599"></path><path d="M419.328 534.784l111.232 111.232a8.32 8.32 0 0 0 11.776 0l111.232-111.232a86.912 86.912 0 0 0 4.352-120.32 84.608 84.608 0 0 0-116.992-6.016 6.656 6.656 0 0 1-8.96 0 84.608 84.608 0 0 0-116.992 6.016 86.912 86.912 0 0 0 4.352 120.32z" fill="#EC1561" p-id="2600"></path></svg>