<?xml version="1.0" standalone="no"?><!DOCTYPE svg PUBLIC "-//W3C//DTD SVG 1.1//EN" "http://www.w3.org/Graphics/SVG/1.1/DTD/svg11.dtd"><svg t="1543497288713" class="icon" style="" viewBox="0 0 1024 1024" version="1.1" xmlns="http://www.w3.org/2000/svg" p-id="12568" xmlns:xlink="http://www.w3.org/1999/xlink" width="200" height="200"><defs><style type="text/css"></style></defs><path d="M512 512m-512 0a512 512 0 1 0 1024 0 512 512 0 1 0-1024 0Z" fill="#FDEBED" p-id="12569"></path><path d="M739.84 500.48c-5.12 14.08-19.2 24.32-35.84 24.32h-12.8v153.6c0 28.16-23.04 51.2-51.2 51.2h-89.6v-102.4c0-7.68-5.12-12.8-12.8-12.8h-51.2c-7.68 0-12.8 5.12-12.8 12.8v102.4h-89.6c-28.16 0-51.2-23.04-51.2-51.2V524.8h-12.8c-15.36 0-29.44-10.24-35.84-24.32-6.4-15.36-2.56-32 10.24-42.24l192-153.6c14.08-12.8 37.12-12.8 51.2 0l192 153.6c12.8 10.24 16.64 26.88 10.24 42.24z" fill="#EC3A4E" p-id="12570"></path></svg>