<?xml version="1.0" standalone="no"?><!DOCTYPE svg PUBLIC "-//W3C//DTD SVG 1.1//EN" "http://www.w3.org/Graphics/SVG/1.1/DTD/svg11.dtd"><svg t="1543507185027" class="icon" style="" viewBox="0 0 1024 1024" version="1.1" xmlns="http://www.w3.org/2000/svg" p-id="16492" xmlns:xlink="http://www.w3.org/1999/xlink" width="200" height="200"><defs><style type="text/css"></style></defs><path d="M515.904 511.936m-416 0a416 416 0 1 0 832 0 416 416 0 1 0-832 0Z" fill="#AEECFF" p-id="16493"></path><path d="M942.528 585.024a38.272 38.272 0 0 1-38.208 38.144H466.432a38.208 38.208 0 0 1-38.144-38.144V298.688c0-20.992 17.152-38.144 38.144-38.144h437.888c20.992 0 38.208 17.152 38.208 38.144v286.336z" fill="#CCCCCC" p-id="16494"></path><path d="M466.432 298.688h437.888V584.96H466.432z" fill="#E8E8E8" p-id="16495"></path><path d="M795.328 357.056H247.808a38.272 38.272 0 0 0-38.144 38.144v305.344c0 20.992 17.152 38.144 38.144 38.144h365.12l80.96 104 80.832-104h20.672a38.272 38.272 0 0 0 38.208-38.144V395.2a38.4 38.4 0 0 0-38.272-38.144z" fill="#0093FF" p-id="16496"></path><path d="M631.552 700.48H247.808v-305.28h547.52v305.28h-39.296l-62.208 79.872z" fill="#FFFFFF" p-id="16497"></path><path d="M388.992 542.592m-38.144 0a38.144 38.144 0 1 0 76.288 0 38.144 38.144 0 1 0-76.288 0Z" fill="#0093FF" p-id="16498"></path><path d="M521.472 542.592m-38.208 0a38.208 38.208 0 1 0 76.416 0 38.208 38.208 0 1 0-76.416 0Z" fill="#0093FF" p-id="16499"></path><path d="M654.08 542.592m-38.144 0a38.144 38.144 0 1 0 76.288 0 38.144 38.144 0 1 0-76.288 0Z" fill="#0093FF" p-id="16500"></path></svg>