<?xml version="1.0" standalone="no"?><!DOCTYPE svg PUBLIC "-//W3C//DTD SVG 1.1//EN" "http://www.w3.org/Graphics/SVG/1.1/DTD/svg11.dtd"><svg t="1543496995698" class="icon" style="" viewBox="0 0 1024 1024" version="1.1" xmlns="http://www.w3.org/2000/svg" p-id="1188" xmlns:xlink="http://www.w3.org/1999/xlink" width="200" height="200"><defs><style type="text/css"></style></defs><path d="M937.344 724.48a22.784 22.784 0 0 0 22.912-22.72V250.816c0-18.176-5.824-35.008-15.424-48.896-0.448-0.64-0.512-1.344-0.96-1.92-0.832-1.024-1.856-1.536-2.752-2.368a86.72 86.72 0 0 0-68.032-33.024H150.912c-48.128 0-87.168 38.592-87.168 86.208v522.304c0 47.616 39.04 86.272 87.168 86.272h722.112c48.128 0 87.168-38.656 87.168-86.272v-71.872a22.784 22.784 0 0 0-22.912-22.528 22.784 22.784 0 0 0-22.912 22.528v67.392a45.568 45.568 0 0 1-45.952 45.376H155.52a45.568 45.568 0 0 1-45.888-45.376V255.36c0-2.496 0.384-4.864 0.768-7.232l401.152 323.584 0.128 0.064A24.064 24.064 0 0 0 523.392 576c1.216 0.128 2.368 0.128 3.584 0.128s2.368 0 3.52-0.128a24.448 24.448 0 0 0 11.776-4.16l0.064-0.064 371.648-319.68c0.128 1.088 0.384 2.176 0.384 3.328v446.528c0 12.416 10.304 22.528 22.976 22.528zM155.52 209.984h712.896c6.144 0 11.84 1.216 17.152 3.328L526.912 523.136 142.528 212.032a45.952 45.952 0 0 1 12.992-2.048z m0 0" fill="#1296db" p-id="1189"></path></svg>