<?xml version="1.0" standalone="no"?><!DOCTYPE svg PUBLIC "-//W3C//DTD SVG 1.1//EN" "http://www.w3.org/Graphics/SVG/1.1/DTD/svg11.dtd"><svg t="1544541851047" class="icon" style="" viewBox="0 0 1024 1024" version="1.1" xmlns="http://www.w3.org/2000/svg" p-id="6176" xmlns:xlink="http://www.w3.org/1999/xlink" width="200" height="200"><defs><style type="text/css"></style></defs><path d="M0 170.24A170.197333 170.197333 0 0 1 170.24 0h683.52A170.197333 170.197333 0 0 1 1024 170.24v683.52A170.197333 170.197333 0 0 1 853.76 1024H170.24A170.197333 170.197333 0 0 1 0 853.76V170.24z m246.016-4.992l22.314667-38.656-66.986667-38.656L85.333333 288.853333l66.986667 38.613334 49.024-84.906667h73.216l60.330667 135.509333 70.656-31.445333-46.336-104.064h151.466666V165.248H246.058667z m388.864 77.354667h64.341333l60.330667 135.509333 70.656-31.445333-46.336-104.064h152.192V165.248h-256.512l23.808-41.258667L636.373333 85.333333l-116.010666 200.96 66.986666 38.656 47.530667-82.346666z m-505.258667 392.106666l149.077334-86.016v41.941334h464.042666v-41.941334l149.034667 86.058667 38.698667-66.986667-419.754667-241.621333-419.754667 241.621333 38.656 66.986667z m210.346667-121.429333l170.752-98.56 170.709333 98.56H339.968z m441.429333 154.709333H240V938.666667h77.354667v-38.656h386.688V938.666667h77.354666v-270.677334z m-77.354666 77.312v77.354667H317.354667v-77.354667h386.688z" fill="#4f7ef1" p-id="6177"></path></svg>