<?xml version="1.0" standalone="no"?><!DOCTYPE svg PUBLIC "-//W3C//DTD SVG 1.1//EN" "http://www.w3.org/Graphics/SVG/1.1/DTD/svg11.dtd"><svg t="1544522114505" class="icon" style="" viewBox="0 0 1024 1024" version="1.1" xmlns="http://www.w3.org/2000/svg" p-id="1463" xmlns:xlink="http://www.w3.org/1999/xlink" width="200" height="200"><defs><style type="text/css"></style></defs><path d="M513.9 98C285.2 98 99.8 283.4 99.8 512.1c0 228.7 185.4 414.1 414.1 414.1 228.7 0 414.1-185.4 414.1-414.1C928 283.4 742.6 98 513.9 98z m51.5 646.9c0 30.5-24.7 55.2-55.2 55.2H503c-30.5 0-55.2-24.7-55.2-55.2 0-30.5 24.7-55.2 55.2-55.2h7.2c30.5 0 55.2 24.7 55.2 55.2z m48-206.3c-43.2 30.4-63.2 60-60 88.8v19.2h-96v-26.4c-1.6-49.6 19.2-88.8 62.4-117.6 40-30.4 59.2-59.2 57.6-86.4-3.2-33.6-22.4-52-57.6-55.2-31.5 0-54.6 15.4-69 46.1-10.9 23.1-36.1 35.7-61.1 30.8-36.7-7.2-56.2-47.7-38.9-80.8 33.5-63.8 95.4-94.5 185.9-92.1 99.2 6.4 153.5 51.2 163.1 134.4 3.1 54.4-25.7 100.8-86.4 139.2z" p-id="1464" fill="#ec3863"></path></svg>