<?xml version="1.0" standalone="no"?><!DOCTYPE svg PUBLIC "-//W3C//DTD SVG 1.1//EN" "http://www.w3.org/Graphics/SVG/1.1/DTD/svg11.dtd"><svg t="1544112594387" class="icon" style="" viewBox="0 0 1024 1024" version="1.1" xmlns="http://www.w3.org/2000/svg" p-id="2689" xmlns:xlink="http://www.w3.org/1999/xlink" width="200" height="200"><defs><style type="text/css"></style></defs><path d="M430.432 250.56a32 32 0 1 1-63.296-9.344l14.912-101.152C385.344 114.496 407.52 96 433.12 96h157.92c25.6 0 47.808 18.496 51.008 43.456l15.008 101.76a32 32 0 1 1-63.328 9.344L580.384 160h-136.576l-13.376 90.56z m148.224-102.368l0.064 0.576-0.064-0.576zM238.144 448.896a32 32 0 1 1-38.72 50.944l-83.424-63.456a50.496 50.496 0 0 1-12.8-66.304l78.592-132.16a51.584 51.584 0 0 1 63.616-22.592l98.304 38.4a32 32 0 1 1-23.296 59.584l-88.48-34.56-67.68 113.92 73.888 56.224z m82.272 261.76a32 32 0 1 1 23.296 59.616L244.48 809.056c-23.232 8.192-50.208-0.736-62.272-22.272l-79.36-133.568a51.04 51.04 0 0 1 13.28-65.696l83.296-63.36a32 32 0 1 1 38.752 50.944l-73.92 56.224 67.712 113.92 88.48-34.56z m273.312 62.784a32 32 0 0 1 63.328 9.344l-14.944 101.152c-3.264 25.568-25.44 44.064-51.072 44.064h-157.92c-25.6 0-47.776-18.496-50.976-43.456l-15.04-101.76a32 32 0 1 1 63.36-9.344l13.312 90.56h136.608l13.344-90.56z m-148.288 101.76l0.096 0.608a15.424 15.424 0 0 0-0.096-0.576z m340.576-300.096a32 32 0 0 1 38.752-50.944l83.424 63.456c20.224 15.552 25.6 43.424 12.768 66.304l-78.56 132.16c-12.576 22.4-39.584 31.776-63.648 22.592l-98.304-38.4a32 32 0 1 1 23.296-59.584l88.48 34.56 67.712-113.92-73.92-56.224z m-82.24-261.76a32 32 0 0 1-23.328-59.616l99.296-38.784c23.2-8.192 50.176 0.736 62.24 22.272l79.36 133.568a51.04 51.04 0 0 1-13.28 65.696l-83.296 63.36a32 32 0 1 1-38.72-50.944l73.888-56.224-67.712-113.92-88.48 34.56zM384 608a64 64 0 0 1-64-64v-64a64 64 0 0 1 64-64h32v-32a64 64 0 0 1 64-64h64a64 64 0 0 1 64 64v32h32a64 64 0 0 1 64 64v64a64 64 0 0 1-64 64h-32v32a64 64 0 0 1-64 64h-64a64 64 0 0 1-64-64v-32h-32z m0-128v64h96v96h64v-96h96v-64h-96v-96h-64v96h-96z" fill="#2FC0FF" p-id="2690"></path></svg>